<?xml version="1.0" encoding="iso-8859-1"?>
<!-- Generator: Adobe Illustrator 19.0.0, SVG Export Plug-In . SVG Version: 6.00 Build 0)  -->
<svg version="1.1" id="Capa_1" xmlns="http://www.w3.org/2000/svg" xmlns:xlink="http://www.w3.org/1999/xlink" x="0px" y="0px"
	 viewBox="0 0 511.999 511.999" style="enable-background:new 0 0 511.999 511.999;" xml:space="preserve">
<path style="fill:#FFE377;" d="M115.004,7.5c-10.537,10.537-16.446,16.445-26.983,26.983v388.088
	c10.537,10.537,16.446,16.445,26.983,26.983h26.355v-52.481h65.406v52.481h217.214V7.5H115.004z"/>
<g>
	<circle style="fill:#FFD322;" cx="212.63" cy="246.831" r="63.543"/>
	<path style="fill:#FFD322;" d="M423.978,214.933c-11.005-18.921-31.486-31.65-54.952-31.65c-35.095,0-63.545,28.45-63.545,63.545
		s28.45,63.545,63.545,63.545c23.466,0,43.946-12.73,54.952-31.649V214.933z"/>
</g>
<polygon style="fill:#FF4655;" points="206.764,499.428 174.062,481.78 141.359,499.428 141.359,397.073 206.764,397.073 "/>
<path style="fill:#57A3FF;" d="M115.004,344.59c-10.537,10.537-16.446,16.445-26.983,26.983v50.998
	c10.537,10.537,16.446,16.445,26.983,26.983h26.355v-52.481h65.406v52.481h217.214V344.59H115.004z"/>
<g>
	<circle style="fill:#A1FFF6;" cx="182.628" cy="246.831" r="63.543"/>
	<circle style="fill:#A1FFF6;" cx="339.025" cy="246.831" r="63.543"/>
</g>
<g>
	<path style="fill:#FFD322;" d="M118.022,422.571V34.483C128.56,23.945,134.468,18.037,145.006,7.5h-30.001
		c-10.537,10.537-16.446,16.445-26.983,26.982v388.088c10.537,10.537,16.446,16.445,26.983,26.982h26.355v-3.646
		C132.968,437.517,127.281,431.83,118.022,422.571z"/>
	<rect x="206.759" y="397.078" style="fill:#FFD322;" width="30.001" height="52.482"/>
</g>
<polygon style="fill:#D73532;" points="171.361,397.073 141.359,397.073 141.359,499.428 171.361,483.238 "/>
<g>
	<path style="fill:#006DEF;" d="M118.022,422.571v-50.998c10.537-10.537,16.446-16.446,26.983-26.982h-30.001
		c-10.537,10.537-16.446,16.445-26.983,26.982v50.998c10.537,10.537,16.446,16.445,26.983,26.982h26.355v-3.646
		C132.968,437.517,127.281,431.83,118.022,422.571z"/>
	<rect x="206.759" y="397.078" style="fill:#006DEF;" width="30.001" height="52.482"/>
</g>
<g>
	<path style="fill:#00FFF6;" d="M149.09,246.827c0-29.925,20.692-55.004,48.544-61.748c-4.811-1.165-9.831-1.797-15.001-1.797
		c-35.095,0-63.545,28.45-63.545,63.545s28.45,63.545,63.545,63.545c5.169,0,10.189-0.632,15.001-1.797
		C169.782,301.832,149.09,276.752,149.09,246.827z"/>
	<path style="fill:#00FFF6;" d="M305.481,246.827c0-29.925,20.692-55.004,48.544-61.748c-4.811-1.165-9.831-1.797-15.001-1.797
		c-35.095,0-63.545,28.45-63.545,63.545s28.45,63.545,63.545,63.545c5.169,0,10.189-0.632,15.001-1.797
		C326.173,301.832,305.481,276.752,305.481,246.827z"/>
</g>
<g>
	<rect x="117.095" y="158.017" style="fill:#1D1D1F;" width="15.001" height="15.001"/>
	<rect x="117.095" y="133.016" style="fill:#1D1D1F;" width="15.001" height="15.001"/>
	<path style="fill:#1D1D1F;" d="M431.478,97.896V0H111.897L80.521,31.376v394.302l31.376,31.376h21.962v54.944l40.203-21.697
		l40.203,21.697v-54.944h217.214V112.897h-15.001v126.431h-6.803c-1.7-16.345-8.939-31.45-20.824-43.144l-10.521,10.691
		c10.794,10.621,16.74,24.81,16.74,39.952c0,30.902-25.142,56.045-56.045,56.045s-56.044-25.142-56.044-56.045
		s25.141-56.045,56.043-56.045c10.205,0.002,20.191,2.769,28.876,8l7.74-12.849c-11.021-6.64-23.683-10.15-36.616-10.152
		c-33.087,0-60.963,22.737-68.827,53.406l-0.529-0.529h-17.68l-0.529,0.529c-7.864-30.669-35.739-53.406-68.827-53.406
		c-36.642,0-66.887,27.883-70.647,63.545h-10.174v15.001h10.171c1.7,16.345,8.939,31.451,20.825,43.145l10.52-10.693
		c-10.794-10.62-16.74-24.809-16.74-39.951c0-30.902,25.142-56.045,56.045-56.045s56.045,25.142,56.045,56.045
		s-25.141,56.045-56.044,56.045c-10.205-0.002-20.191-2.769-28.876-8l-7.74,12.849c11.021,6.64,23.683,10.15,36.616,10.152
		c28.669,0,53.408-17.079,64.625-41.589h6.42v-28.1l4.523-4.523h5.253l4.523,4.523v28.1h6.42
		c11.217,24.51,35.956,41.589,64.625,41.589c36.642,0,66.887-27.883,70.647-63.545h6.807v82.763h-304.58l-16.376,16.375V37.59
		l21.578-21.578v107.001H132.1V15.001h284.378v82.896H431.478z M199.264,486.858l-25.202-13.602l-25.202,13.602v-82.285h26.341
		v41.114h15.001v-41.114h9.063L199.264,486.858L199.264,486.858z M214.265,442.054v-9.425h202.213v9.425H214.265z M118.11,352.091
		h298.367v9.425H112.156v15.001h304.323v13.056H277.163v15.001h139.315v13.056H214.265v-13.056h47.898v-15.001H112.156v15.001
		h21.703v13.056h-21.703v15.001h21.703v9.425H118.11l-22.589-22.589v-44.785L118.11,352.091z"/>
	<rect x="216.8" y="52.022" style="fill:#1D1D1F;" width="15.001" height="15.001"/>
	<rect x="241.801" y="52.022" style="fill:#1D1D1F;" width="114.115" height="15.001"/>
	<rect x="191.799" y="52.022" style="fill:#1D1D1F;" width="15.001" height="15.001"/>
	<rect x="191.799" y="92.264" style="fill:#1D1D1F;" width="150.007" height="15.001"/>
	<rect x="191.799" y="132.506" style="fill:#1D1D1F;" width="15.001" height="15.001"/>
	<rect x="241.801" y="132.506" style="fill:#1D1D1F;" width="15.001" height="15.001"/>
	<rect x="216.8" y="132.506" style="fill:#1D1D1F;" width="15.001" height="15.001"/>
	<rect x="266.802" y="132.506" style="fill:#1D1D1F;" width="15.001" height="15.001"/>
</g>
<g>
	<path style="fill:#FFFFFF;" d="M230.383,226.861l-13.838,5.793c1.605,3.834,2.538,7.896,2.773,12.073l14.978-0.842
		C233.966,238.001,232.648,232.273,230.383,226.861z"/>
	<path style="fill:#FFFFFF;" d="M214.751,264.696l13.101,7.307c2.867-5.14,4.818-10.686,5.8-16.482l-14.791-2.504
		C218.165,257.123,216.782,261.052,214.751,264.696z"/>
	<path style="fill:#FFFFFF;" d="M182.633,195.082v15.001c11.806,0,22.972,5.734,29.87,15.34l12.185-8.75
		C214.98,203.153,199.258,195.082,182.633,195.082z"/>
</g>
<path style="fill:#1D1D1F;" d="M150.291,287.075c6.357,5.118,13.888,8.761,21.993,10.42l3.007-14.696
	c-11.03-2.257-20.593-9.663-25.579-19.814l-0.07,0.034c-2.439-4.967-3.751-10.481-3.751-16.193H130.89
	c0,15.751,7.045,30.452,19.331,40.336L150.291,287.075z"/>
<g>
	<path style="fill:#FFFFFF;" d="M341.968,297.61c5.884-0.33,11.612-1.646,17.025-3.913l-5.793-13.837
		c-3.834,1.605-7.896,2.538-12.073,2.772L341.968,297.61z"/>
	<path style="fill:#FFFFFF;" d="M360.43,275.816l8.75,12.185c13.519-9.707,21.589-25.429,21.589-42.054h-15.001
		C375.768,257.753,370.035,268.918,360.43,275.816z"/>
	<path style="fill:#FFFFFF;" d="M332.837,282.174c-4.108-0.696-8.038-2.079-11.681-4.109l-7.307,13.101
		c5.139,2.866,10.684,4.817,16.482,5.799L332.837,282.174z"/>
</g>
<path style="fill:#1D1D1F;" d="M316.251,199.561c-14.285,7.019-24.712,20.49-27.893,36.036l14.696,3.008
	c2.257-11.032,9.663-20.594,19.812-25.58L316.251,199.561z"/>
<g>
	<rect x="387.677" y="52.252" style="fill:#FFFFFF;" width="15.001" height="15.001"/>
	<rect x="387.677" y="77.253" style="fill:#FFFFFF;" width="15.001" height="76.003"/>
	<rect x="387.677" y="27.251" style="fill:#FFFFFF;" width="15.001" height="15.001"/>
</g>
<g>
</g>
<g>
</g>
<g>
</g>
<g>
</g>
<g>
</g>
<g>
</g>
<g>
</g>
<g>
</g>
<g>
</g>
<g>
</g>
<g>
</g>
<g>
</g>
<g>
</g>
<g>
</g>
<g>
</g>
</svg>
